<svg width="221" height="133" viewBox="0 0 221 133" fill="none" xmlns="http://www.w3.org/2000/svg">
  <defs>
    <linearGradient id="timewardenGradient" x1="0%" y1="0%" x2="0%" y2="100%">
      <stop offset="0%" style="stop-color:#57B8EA;stop-opacity:1" />
      <stop offset="100%" style="stop-color:#2765D9;stop-opacity:1" />
    </linearGradient>
  </defs>
  <path d="M211.148 114.954C210.53 115.041 209.915 115.125 209.297 115.211C207.687 115.434 206.08 115.658 204.47 115.881C202.231 116.191 199.992 116.503 197.756 116.813C190.922 117.763 191.261 117.697 190.234 117.856C188.279 118.16 186.321 118.447 184.372 118.789C181.895 119.223 179.482 119.745 176.97 119.953C176.05 120.029 175.278 120.066 175.102 119.704C174.846 119.183 176.03 118.256 177.718 116.521C178.803 115.406 179.743 114.261 181.619 111.97C181.935 111.582 184.482 108.468 185.41 107.454C185.767 107.063 186.133 106.681 186.504 106.298C186.64 106.159 186.777 106.02 186.916 105.884C189.1 103.726 191.586 101.875 194.402 100.624C205.935 95.5051 219.908 101.394 211.148 114.948V114.954Z" fill="url(#timewardenGradient)"/>
  <path d="M140.047 77.1072C140.706 76.8233 140.941 75.3895 141.158 74.7232C143.676 66.9774 145.768 57.3661 148.95 50.0809C155.508 35.0817 172.32 36.7878 178.052 51.8652C181.103 59.892 183.131 68.9037 185.796 77.1072C186.327 77.1941 186.313 76.4584 186.417 76.0789C188.761 67.6523 189.5 57.6731 192.329 49.5566C198.478 31.9011 225.297 40.3218 220.004 58.771L210.159 98.3257C206.252 97.3495 202.252 96.744 198.246 97.4653C192.041 98.5864 185.593 104.22 181.744 108.988C177.93 113.71 175.882 118.325 172.384 118.177C171.879 118.157 171.377 118.038 170.91 117.847C170.548 117.696 170.162 117.537 169.857 117.273C169.486 116.952 169.385 116.526 169.242 116.074C169.118 115.686 168.993 115.298 168.871 114.909C168.633 114.165 168.395 113.418 168.158 112.673C167.725 111.315 167.293 109.956 166.861 108.595C166.49 107.427 166.121 106.26 165.756 105.089C165.457 104.131 165.158 103.172 164.862 102.213C164.639 101.483 164.416 100.756 164.198 100.023C164.071 99.5915 164.015 99.1338 163.908 98.6964C163.833 98.3923 163.751 98.0881 163.644 97.7927C163.563 97.5667 163.47 97.3205 163.311 97.138C163.253 97.0714 163.177 97.0019 163.084 96.9932C162.896 96.9729 162.884 97.1351 162.823 97.2741C162.739 97.4682 162.71 97.671 162.649 97.868C162.391 98.6906 162.13 99.5162 161.872 100.339C161.063 102.911 160.25 105.483 159.441 108.059C158.597 110.732 157.756 113.409 156.912 116.083C156.465 117.502 156.018 118.921 155.572 120.338L155.551 120.402C152.097 130.488 141.712 134.891 131.644 131.733C124.999 129.651 122.684 123.849 120.892 117.786C115.673 100.127 110.429 78.515 106.725 60.454C106.389 58.8174 105.774 56.3841 105.73 54.7967C105.26 38.158 128.808 33.642 134.249 50.2865C136.973 58.6204 137.73 68.5561 140.05 77.1014L140.047 77.1072Z" fill="url(#timewardenGradient)"/>
  <path d="M102.188 76.5631C102.626 84.0772 102.618 91.6058 101.243 98.9866C99.3197 109.308 94.4206 119.458 85.9594 125.689C77.71 131.763 66.8326 133.518 56.6717 132.168C49.4027 131.201 42.1801 128.646 36.666 123.817C28.8981 117.013 25.3768 106.489 24.2745 96.2289C23.1723 85.9688 24.1556 75.6043 23.7234 65.2949C23.6973 64.646 23.6509 63.9566 23.2767 63.4236C22.3224 62.0564 20.2107 62.6734 18.6734 63.328C15.9816 64.4722 13.1506 65.2949 10.2615 65.7671C8.81993 66.0017 7.16657 66.0944 6.08174 65.1153C5.37108 64.4751 5.07232 63.5076 4.79966 62.5894C3.33774 57.636 1.87872 52.6826 0.416796 47.7292C0.0513164 46.4865 -0.293859 45.0584 0.399393 43.9635C0.996923 43.0192 2.17168 42.6513 3.24782 42.35C8.40514 40.9104 13.5277 39.349 18.7198 38.031C20.7009 37.5299 23.5871 36.6985 27.033 35.3255C26.5341 26.9366 26.0323 18.5477 25.5334 10.1617C25.4522 9.17105 25.3826 6.60456 27.033 4.31905C27.3231 3.91641 28.3093 2.63316 30.7835 1.47447C37.5362 -1.69164 44.6312 1.10949 46.4006 1.88291C49.4723 3.22409 50.473 4.5421 50.8675 5.20255C51.7899 6.75519 51.8625 8.64964 51.9089 10.4543C52.0655 16.3462 52.2221 22.2381 52.3788 28.1329C64.6804 24.4512 76.9819 20.7695 89.2806 17.0907C92.5555 16.1116 95.8477 15.1267 99.2414 14.724C100.961 14.5213 102.835 14.5039 104.268 15.4772C105.603 16.3868 106.281 17.9713 106.829 19.492C108.097 22.9971 109.054 26.6122 109.681 30.2852C109.965 31.9479 110.159 33.7613 109.336 35.2357C108.323 37.049 106.125 37.7732 104.126 38.341C87.9696 42.9525 71.8159 47.5641 55.6594 52.1757C54.592 52.4798 53.4201 52.8593 52.8545 53.8152C52.5151 54.3859 52.4513 55.0753 52.3991 55.7386C51.3722 68.8492 51.526 82.0524 52.8603 95.1369C53.3418 99.8614 54.4643 105.301 58.6992 107.462C63.1894 109.754 68.924 106.747 71.3808 102.35C73.8377 97.9525 73.887 92.6631 73.8725 87.6286C73.8551 81.3977 73.8406 75.1698 73.8232 68.939C73.8232 67.8759 73.8406 66.7375 74.4642 65.8742C75.3895 64.591 77.2169 64.4549 78.8007 64.4375C84.9993 64.368 91.198 64.2984 97.3937 64.2289C98.6062 64.2144 99.9898 64.2753 100.776 65.1993C101.327 65.8482 101.426 66.7548 101.501 67.6007C101.762 70.5814 102.009 73.5737 102.183 76.5718L102.188 76.5631Z" fill="url(#timewardenGradient)"/>
</svg>
